<svg width="32" height="32" viewBox="0 0 32 32" fill="none" xmlns="http://www.w3.org/2000/svg">
  <defs>
    <linearGradient id="logoGradient" x1="0%" y1="0%" x2="100%" y2="100%">
      <stop offset="0%" style="stop-color:#0066ff;stop-opacity:1" />
      <stop offset="100%" style="stop-color:#00ccff;stop-opacity:1" />
    </linearGradient>
  </defs>
  
  <!-- Cloud shape -->
  <path d="M24 12c-1.1 0-2.1.3-3 .8C20.2 9.7 17.3 8 14 8c-4.4 0-8 3.6-8 8 0 .6.1 1.2.2 1.8C4.3 18.4 3 19.9 3 21.5c0 2.5 2 4.5 4.5 4.5h16c3.3 0 6-2.7 6-6s-2.7-6-5.5-6z" fill="url(#logoGradient)"/>
  
  <!-- Binary dots -->
  <circle cx="10" cy="14" r="1.5" fill="white" opacity="0.8"/>
  <circle cx="14" cy="16" r="1.5" fill="white" opacity="0.6"/>
  <circle cx="18" cy="14" r="1.5" fill="white" opacity="0.8"/>
  <circle cx="22" cy="16" r="1.5" fill="white" opacity="0.6"/>
</svg>